<svg width="95" height="95" viewBox="0 0 95 95" fill="none" xmlns="http://www.w3.org/2000/svg">
<g opacity="0.2">
<path d="M70.9202 57.28V80.3374C70.9202 81.2214 71.8621 81.7671 72.6016 81.3113L91.3081 69.7827C92.0249 69.3409 92.0249 68.2764 91.3081 67.8347L72.6016 56.306C71.8621 55.8503 70.9202 56.3959 70.9202 57.28Z" fill="#6AB9E8"/>
<path d="M5 43.7468V66.8041C5 67.6882 5.94197 68.2338 6.68143 67.7781L25.388 56.2494C26.1047 55.8076 26.1047 54.7431 25.388 54.3014L6.68143 42.7728C5.94197 42.3171 5 42.8627 5 43.7468Z" fill="#6AB9E8"/>
<path d="M91.281 40.7965L28.6553 2.16467C27.9159 1.7085 26.9735 2.25408 26.9735 3.13839L26.93 77.3098V80.2932C26.93 81.1773 25.988 81.723 25.2485 81.2673L6.54207 69.7386C6.53586 69.7348 6.53068 69.7301 6.52461 69.7261C5.81549 69.4287 5 69.9572 5 70.7798V93.8372C5 94.7213 5.94197 95.2669 6.68142 94.8111L91.2802 42.7444C91.9972 42.303 91.9976 41.2384 91.281 40.7965Z" fill="#6AB9E8"/>
</g>
<path fill-rule="evenodd" clip-rule="evenodd" d="M37.7303 18.1514C37.173 18.3278 36.2796 19.2454 36.1256 19.7996C36.048 20.0787 36.001 21.7239 36.0007 24.1773C36 27.98 36.0078 28.1179 36.2391 28.4116C36.5697 28.8314 37.1605 28.8314 37.4911 28.4116C37.7224 28.118 37.7303 27.9792 37.7303 24.201V20.2939L38.0134 20.0111L38.2965 19.7283H52.6053H66.9139L66.9146 23.9625C66.915 26.5921 66.9616 28.3635 67.0376 28.6369C67.194 29.1993 67.8778 29.9586 68.4712 30.2284C68.8912 30.4194 69.3236 30.4386 73.2871 30.4409L77.6415 30.4434V33.1057C77.6415 35.5939 77.6284 35.763 77.4397 35.6906C76.8985 35.483 75.516 35.1449 74.5848 34.9925C73.7242 34.8516 71.7568 34.8225 63.087 34.8221L52.6272 34.8216L52.3882 35.1252C52.0901 35.5037 52.0839 35.8679 52.3695 36.2203L52.5899 36.4923L58.798 36.5499L65.006 36.6075L64.2009 37.0863C63.7581 37.3498 63.0198 37.8812 62.5604 38.2673L61.725 38.9694H57.3351C53.7078 38.9694 52.8884 38.9987 52.6188 39.138C52.0753 39.4188 51.9794 40.0375 52.416 40.4472C52.6788 40.6937 52.7422 40.6977 56.4097 40.6977H60.1364L59.9515 40.9569C58.8823 42.4561 57.9167 44.4787 57.5036 46.0841L57.2888 46.9194H55.002C52.728 46.9194 52.7138 46.921 52.4323 47.2023C52.0713 47.5627 52.0713 48.0044 52.4323 48.3648C52.7124 48.6448 52.7371 48.6477 54.8546 48.6477H56.9938V49.915V51.1824H54.8106H52.6272L52.3882 51.486C52.0901 51.8644 52.0839 52.2286 52.3694 52.581C52.5846 52.847 52.6423 52.8543 54.931 52.9107L57.2723 52.9683L57.3659 53.4291C57.6684 54.9169 58.5954 57.0511 59.5681 58.4987L60.11 59.3052L56.3948 59.3356C52.7675 59.3653 52.6732 59.3719 52.4143 59.6149C51.9794 60.0231 52.0762 60.6423 52.6188 60.9225C52.8885 61.0618 53.7125 61.0911 57.3739 61.0911C61.7186 61.0911 61.8069 61.0957 62.0208 61.3316C62.344 61.6885 63.766 62.733 64.4916 63.1468L65.126 63.5084L58.9207 63.5096L52.7153 63.5106L52.4323 63.7935C52.0862 64.139 52.071 64.5326 52.3882 64.9353L52.6272 65.2389H62.992C69.7926 65.2389 73.6653 65.196 74.2538 65.1143C75.0133 65.0088 76.3699 64.6865 77.382 64.3712L77.6415 64.2903V69.4937V74.6971L77.3584 74.9799L77.0753 75.2627H57.6859H38.2965L38.0134 74.9799L37.7303 74.6971V52.871C37.7303 31.7176 37.7236 31.0368 37.5144 30.7788C37.2145 30.4088 36.5157 30.4088 36.2158 30.7788C36.0067 31.0368 36 31.7178 36 52.8813C36 69.7511 36.0321 74.8254 36.141 75.1917C36.3264 75.8153 37.177 76.6649 37.8013 76.8502C38.4359 77.0383 76.8867 77.055 77.5632 76.8675C77.8056 76.8002 78.2113 76.5581 78.4647 76.3295C79.3544 75.5266 79.3074 75.8887 79.3718 69.337L79.4295 63.469L79.9972 63.1359L80.5649 62.8028L81.5956 63.8324C82.5143 64.7499 82.6126 64.8879 82.4987 65.1005C82.1571 65.7382 82.2238 65.8298 85.2258 68.8387C86.7961 70.4126 88.3403 71.8789 88.6575 72.0971C90.7166 73.514 93.6331 72.7161 94.692 70.4462C94.9515 69.89 94.9985 69.6314 95 68.7506C95.003 67.0269 94.8521 66.8047 91.2245 63.1938C88.6152 60.5964 88.138 60.1696 87.8451 60.1711C87.6574 60.1721 87.4262 60.2224 87.331 60.2829C87.1971 60.3681 86.9199 60.1564 86.1055 59.3474L85.0531 58.3017L85.5018 57.536C86.7535 55.4002 87.8081 51.2324 87.2947 50.4499C86.8214 49.7284 85.7289 50.1278 85.7198 51.0257C85.7177 51.2246 85.6359 51.8208 85.5379 52.3507C84.2894 59.0985 78.4031 63.8045 71.6161 63.481C68.184 63.3174 65.2449 62.0386 62.8131 59.6509C60.6299 57.5071 59.3735 55.1187 58.9022 52.2163C58.3464 48.7934 59.0976 45.3596 61.0331 42.474C61.8167 41.3059 63.4856 39.639 64.655 38.8563C70.1822 35.1575 77.4528 35.9599 82.0358 40.7744C83.7498 42.5749 84.8695 44.6666 85.4419 47.1369C85.539 47.556 85.7004 47.9894 85.8005 48.1004C86.0564 48.3838 86.6956 48.3605 86.9998 48.0567C87.2154 47.8414 87.2365 47.7271 87.1733 47.122C87.0874 46.3013 86.4513 44.3472 85.9382 43.328C84.6539 40.7764 82.6384 38.5596 80.2517 37.0738L79.3718 36.526V32.8812V29.2363L73.7472 23.6181L68.1225 18L53.1283 18.0118C42.4964 18.02 38.0166 18.0607 37.7303 18.1514ZM72.5661 24.8554L76.4291 28.7152H72.8198H69.2105L68.9274 28.4323L68.6442 28.1496V24.5725C68.6442 22.6052 68.6575 20.9956 68.6737 20.9956C68.6899 20.9956 70.4415 22.7325 72.5661 24.8554ZM43.2094 34.073C42.6419 34.2733 42.1676 34.7818 42.006 35.3628C41.9389 35.6039 41.8861 36.7083 41.8885 37.8173C41.8943 40.444 42.0567 40.927 43.0941 41.4027C43.4884 41.5836 43.8656 41.6146 45.6894 41.6162C46.8631 41.6172 48.013 41.5655 48.2447 41.5013C48.7699 41.3556 49.4576 40.616 49.5562 40.091C49.5965 39.8764 49.6124 38.6896 49.5916 37.4535L49.5537 35.2064L49.221 34.7709C48.6345 34.0035 48.2433 33.9046 45.8048 33.9075C44.2654 33.9094 43.5422 33.9554 43.2094 34.073ZM47.8234 37.7597V39.8336L45.8133 39.8651C44.2824 39.8892 43.781 39.8618 43.7099 39.7499C43.5523 39.5019 43.592 35.9258 43.7542 35.7638C43.8569 35.6612 44.4291 35.6315 45.8594 35.6543L47.8234 35.6858V37.7597ZM71.0666 38.8096C65.5263 39.4852 61.4279 43.735 60.9677 49.2813C60.8321 50.9175 61.3013 53.5179 61.8006 53.8958C62.2373 54.2263 62.8353 54.0724 63.0445 53.5755C63.1632 53.2933 63.1496 53.0927 62.9616 52.3542C62.6365 51.0776 62.6451 48.9136 62.98 47.6683C63.895 44.2672 66.448 41.7169 69.8554 40.8004C71.2688 40.4203 73.4251 40.4441 74.791 40.8551C77.5858 41.6961 79.6688 43.4644 80.8633 46.0103C81.534 47.44 81.7225 48.3217 81.7225 50.0303C81.7225 51.7388 81.534 52.6206 80.8633 54.0502C79.6725 56.5883 77.5773 58.3671 74.791 59.2054C73.9179 59.4681 73.5692 59.5103 72.2777 59.5094C69.348 59.5073 67.2881 58.6117 65.2164 56.4393C64.5006 55.6887 64.1952 55.4454 63.9688 55.4454C63.2579 55.4454 62.8799 55.9921 63.1483 56.6319C63.3914 57.211 64.9408 58.7088 66.0311 59.4187C68.0503 60.7333 69.823 61.2505 72.2777 61.2412C73.6392 61.236 74.0736 61.1875 75.0462 60.9321C79.5808 59.741 82.9151 55.894 83.4342 51.2543C84.1589 44.7775 79.2332 39.0658 72.7014 38.8088C72.0243 38.7822 71.2886 38.7826 71.0666 38.8096ZM74.7001 45.4196C74.4463 45.5452 73.5693 46.3182 72.7513 47.1374L71.2639 48.6267L70.6985 48.1802C69.7607 47.4398 68.7736 47.301 67.7791 47.7694C67.4619 47.9188 67.0887 48.1646 66.9499 48.3156C66.5752 48.7232 66.2273 49.5666 66.2244 50.0745C66.2188 51.0594 66.4181 51.3876 68.0026 53.0045C69.6769 54.7128 69.9571 54.9224 70.8128 55.1057C71.3008 55.2102 71.5264 55.1986 72.0731 55.0414C72.7152 54.8568 72.8328 54.7541 75.3345 52.1958C76.762 50.7361 78.0189 49.4069 78.1276 49.2422C78.6627 48.4316 78.6011 47.0923 77.9899 46.2495C77.3003 45.2988 75.7398 44.9052 74.7001 45.4196ZM42.9322 46.3494C42.0236 46.9105 41.8826 47.3928 41.8836 49.9373C41.8843 52.0017 41.9708 52.493 42.4299 53.038C42.9533 53.6594 43.2446 53.7174 45.8299 53.7153C48.0372 53.7135 48.1951 53.6989 48.6222 53.4561C48.9045 53.2956 49.176 53.0075 49.3432 52.691C49.5978 52.2089 49.6112 52.0684 49.6088 49.9258C49.6059 47.3777 49.5073 46.9592 48.7886 46.4471C48.4107 46.178 48.3319 46.1697 45.8625 46.1387C43.4542 46.1085 43.3047 46.1192 42.9322 46.3494ZM76.4547 47.1786C76.8089 47.5652 76.8567 47.8608 76.6318 48.2729C76.3682 48.7555 71.8964 53.2517 71.5471 53.3854C71.105 53.5546 70.6206 53.2281 69.2388 51.8291C67.8102 50.3828 67.6926 50.1132 68.2349 49.5286C68.7018 49.0254 69.085 49.1119 69.994 49.9254C70.8922 50.7289 71.126 50.8477 71.528 50.7047C71.6866 50.6484 72.6209 49.7727 73.6043 48.7591C75.2606 47.0517 75.4225 46.9162 75.8047 46.9177C76.0836 46.9188 76.294 47.0033 76.4547 47.1786ZM47.8234 49.915V51.9313H45.7471H43.6708L43.639 50.0346C43.6216 48.9916 43.6333 48.0701 43.6653 47.9869C43.7107 47.8684 44.1658 47.8426 45.7734 47.8673L47.8234 47.8987V49.915ZM43.0941 58.6578C42.0567 59.1335 41.8943 59.6165 41.8885 62.2432C41.8836 64.5155 41.9763 65.0096 42.5073 65.5399C43.0625 66.0945 43.5823 66.1833 46.0227 66.1405C48.4267 66.0985 48.6484 66.0388 49.2305 65.2771L49.5537 64.8542L49.5916 62.607C49.6124 61.3709 49.5965 60.1841 49.5562 59.9695C49.4576 59.4445 48.7699 58.7049 48.2447 58.5592C48.013 58.495 46.8631 58.4433 45.6894 58.4443C43.8656 58.4459 43.4884 58.4769 43.0941 58.6578ZM84.9672 60.7463L85.8855 61.669L84.8781 62.6754L83.8705 63.6817L82.9255 62.7379L81.9806 61.794L82.9544 60.8137C83.4899 60.2745 83.9554 59.8313 83.9885 59.8285C84.0217 59.8259 84.4621 60.2389 84.9672 60.7463ZM47.8234 62.3008V64.3747L45.8777 64.4064C44.5407 64.4281 43.8821 64.3967 43.7726 64.3058C43.6492 64.2036 43.6131 63.762 43.6131 62.3537C43.6131 61.3528 43.6451 60.4507 43.6842 60.3489C43.7463 60.1873 44.0102 60.1681 45.7893 60.1955L47.8234 60.2269V62.3008ZM90.4593 64.8644C93.1857 67.6194 93.3331 67.8231 93.3267 68.8239C93.3193 69.9659 92.1351 71.1137 90.9645 71.1137C90.124 71.1137 89.8647 70.9165 87.1282 68.1974L84.4454 65.5316L86.0886 63.8874C86.9923 62.9832 87.7618 62.2432 87.7985 62.2432C87.8352 62.2432 89.0325 63.4228 90.4593 64.8644Z" fill="#6AB9E8"/>
</svg>
